<?xml version="1.0" encoding="iso-8859-1"?>
<!-- Generator: Adobe Illustrator 19.0.0, SVG Export Plug-In . SVG Version: 6.00 Build 0)  -->
<svg version="1.1" id="Capa_1" xmlns="http://www.w3.org/2000/svg" xmlns:xlink="http://www.w3.org/1999/xlink" x="0px" y="0px"
	 viewBox="0 0 512.044 512.044" style="enable-background:new 0 0 512.044 512.044;" xml:space="preserve">
<g>
	<g>
		<path d="M298.711,234.689c-70.592,0-128,57.408-128,128s57.408,128,128,128c70.592,0,128-57.408,128-128
			S369.303,234.689,298.711,234.689z M298.711,469.355c-58.816,0-106.667-47.851-106.667-106.667
			c0-58.816,47.851-106.667,106.667-106.667c58.816,0,106.667,47.851,106.667,106.667
			C405.377,421.505,357.527,469.355,298.711,469.355z"/>
	</g>
</g>
<g>
	<g>
		<path d="M160.044,64.022h-64c-5.888,0-10.667,4.779-10.667,10.667v32c0,5.888,4.779,10.667,10.667,10.667
			s10.667-4.779,10.667-10.667h42.667c0,5.888,4.779,10.667,10.667,10.667s10.667-4.779,10.667-10.667v-32
			C170.711,68.801,165.932,64.022,160.044,64.022z"/>
	</g>
</g>
<g>
	<g>
		<path d="M406.956,230.614c-23.616-37.589-63.893-59.925-108.245-59.925c-45.227,0-86.208,23.232-109.653,62.165
			c-2.667,4.437-1.771,10.155,2.155,13.547c3.883,3.392,9.664,3.477,13.717,0.235c26.517-21.461,59.819-33.28,93.781-33.28
			c33.963,0,67.264,11.819,93.781,33.301c1.963,1.579,4.331,2.368,6.699,2.368c0.149,0,0.32,0,0.427,0
			c5.888,0,10.667-4.779,10.667-10.667C410.284,235.307,409.025,232.555,406.956,230.614z"/>
	</g>
</g>
<g>
	<g>
		<path d="M298.711,277.355c-47.061,0-85.333,38.272-85.333,85.333s38.272,85.333,85.333,85.333
			c47.061,0,85.333-38.272,85.333-85.333S345.772,277.355,298.711,277.355z"/>
	</g>
</g>
<g>
	<g>
		<path d="M381.399,46.315c-15.787-17.963-36.011-24.96-72.021-24.96h-21.333c-36.011,0-56.235,6.997-72,24.96
			c-5.611,6.357-8.512,14.4-11.349,22.187c-4.032,11.115-7.445,19.093-14.187,23.701l47.765,35.819h120.875l54.763-41.067
			L381.399,46.315z M352.044,106.689H245.377c-5.888,0-10.667-4.779-10.667-10.667s4.779-10.667,10.667-10.667h106.667
			c5.888,0,10.667,4.779,10.667,10.667S357.932,106.689,352.044,106.689z"/>
	</g>
</g>
<g>
	<g>
		<path d="M298.711,149.355h-64c-2.304,0-4.565-0.747-6.4-2.133l-67.733-50.795c-39.979,1.429-116.693,7.893-137.173,35.989
			C-0.212,164.801-0.127,180.63,0.023,206.849l0.021,187.84c0,29.397,23.915,53.333,53.333,53.333h21.333
			c10.219,0,39.616-6.72,49.813-21.333h23.531c0.064,0,0.149,0,0.213,0c7.083,0.171,10.88-4.715,10.88-10.667
			c0-2.261-0.704-4.373-1.92-6.101c-5.205-15.488-7.851-31.36-7.851-47.232v-64C149.377,216.342,216.385,149.355,298.711,149.355z
			 M64.044,213.355c-11.776,0-21.333-9.579-21.333-21.333s9.557-21.333,21.333-21.333s21.333,9.579,21.333,21.333
			S75.82,213.355,64.044,213.355z M128.044,373.355c0,5.888-4.779,10.667-10.667,10.667s-10.667-4.779-10.667-10.667V160.022
			c0-5.888,4.779-10.667,10.667-10.667s10.667,4.779,10.667,10.667V373.355z"/>
	</g>
</g>
<g>
	<g>
		<path d="M432.044,100.011l-62.933,47.211c-1.835,1.387-4.075,2.133-6.4,2.133h-64c82.325,0,149.333,66.987,149.333,149.333v64
			c0,16.32-2.795,32.661-8.299,48.597c-1.259,3.605-0.448,7.595,2.048,10.496c2.496,2.88,6.336,4.181,10.112,3.456
			c34.859-6.891,60.139-37.675,60.139-73.216V181.355C512.044,145.537,468.119,112.214,432.044,100.011z"/>
	</g>
</g>
<g>
</g>
<g>
</g>
<g>
</g>
<g>
</g>
<g>
</g>
<g>
</g>
<g>
</g>
<g>
</g>
<g>
</g>
<g>
</g>
<g>
</g>
<g>
</g>
<g>
</g>
<g>
</g>
<g>
</g>
</svg>
