<?xml version="1.0" encoding="iso-8859-1"?>
<!-- Generator: Adobe Illustrator 19.0.0, SVG Export Plug-In . SVG Version: 6.00 Build 0)  -->
<svg version="1.1" id="Capa_1" xmlns="http://www.w3.org/2000/svg" xmlns:xlink="http://www.w3.org/1999/xlink" x="0px" y="0px"
	 viewBox="0 0 512 512" style="enable-background:new 0 0 512 512;" xml:space="preserve">
<g>
	<g>
		<path d="M480,0H32c-5.888,0-10.667,4.779-10.667,10.667v490.667C21.333,507.221,26.112,512,32,512h448
			c5.888,0,10.667-4.779,10.667-10.667V10.667C490.667,4.779,485.888,0,480,0z M448,363.008c0,5.717-4.779,10.325-10.667,10.325
			H74.667c-5.888,0-10.667-4.629-10.667-10.325V52.992c0-5.696,4.779-10.325,10.667-10.325h362.667
			c5.888,0,10.667,4.629,10.667,10.325V363.008z"/>
	</g>
</g>
<g>
	<g>
		<path d="M295.083,242.325C310.123,230.592,320,212.501,320,192c0-35.285-28.715-64-64-64s-64,28.715-64,64
			c0,20.501,9.877,38.592,24.917,50.325c-39.488,15.637-67.584,54.016-67.584,99.008v32c0,5.888,4.779,10.667,10.667,10.667h192
			c5.888,0,10.667-4.779,10.667-10.667v-32C362.667,296.341,334.571,257.963,295.083,242.325z"/>
	</g>
</g>
<g>
</g>
<g>
</g>
<g>
</g>
<g>
</g>
<g>
</g>
<g>
</g>
<g>
</g>
<g>
</g>
<g>
</g>
<g>
</g>
<g>
</g>
<g>
</g>
<g>
</g>
<g>
</g>
<g>
</g>
</svg>
